<svg width="720" height="720" viewBox="0 0 720 720" fill="none" xmlns="http://www.w3.org/2000/svg">
<rect y="680" width="720" height="40" fill="white"/>
<path d="M85.25 685C81.2727 685 77.4547 686.581 74.6445 689.393C71.8315 692.207 70.2508 696.022 70.25 700C70.25 703.977 71.832 707.795 74.6445 710.607C77.4547 713.419 81.2727 715 85.25 715C89.2273 715 93.0453 713.419 95.8555 710.607C98.668 707.795 100.25 703.977 100.25 700C100.25 696.023 98.668 692.205 95.8555 689.393C93.0453 686.581 89.2273 685 85.25 685Z" fill="url(#paint0_linear_125_52)"/>
<path d="M77.0398 699.842C81.4132 697.937 84.3289 696.681 85.7867 696.074C89.9539 694.341 90.8187 694.04 91.3836 694.03C91.5078 694.028 91.7843 694.059 91.9648 694.204C92.1148 694.328 92.157 694.494 92.1781 694.611C92.1968 694.727 92.2226 694.994 92.2015 695.201C91.9765 697.573 90.9992 703.329 90.5023 705.985C90.2937 707.11 89.8789 707.486 89.4781 707.523C88.6062 707.603 87.9453 706.948 87.1015 706.395C85.782 705.529 85.0367 704.991 83.7546 704.146C82.2734 703.17 83.2343 702.634 84.0781 701.757C84.2984 701.528 88.1375 698.037 88.2101 697.72C88.2195 697.68 88.2289 697.533 88.1398 697.455C88.0531 697.377 87.9242 697.404 87.8304 697.425C87.6968 697.455 85.5898 698.849 81.5023 701.607C80.9046 702.018 80.3632 702.218 79.8757 702.208C79.3414 702.196 78.3101 701.905 77.5437 701.656C76.6062 701.35 75.8586 701.189 75.9242 700.67C75.957 700.4 76.3296 700.124 77.0398 699.842Z" fill="white"/>
<path d="M34.3382 692.79C34.1661 692.154 33.8303 691.574 33.3645 691.108C32.8986 690.643 32.3188 690.307 31.6829 690.135C29.3546 689.5 19.9849 689.5 19.9849 689.5C19.9849 689.5 10.6148 689.519 8.28683 690.154C7.65091 690.326 7.07117 690.662 6.60533 691.128C6.13949 691.594 5.80382 692.173 5.63173 692.809C4.9275 696.946 4.65429 703.249 5.651 707.22C5.82309 707.856 6.15876 708.436 6.6246 708.902C7.09043 709.367 7.67018 709.703 8.3061 709.875C10.6342 710.51 20.0041 710.51 20.0041 710.51C20.0041 710.51 29.374 710.51 31.7021 709.875C32.3381 709.703 32.9178 709.367 33.3836 708.902C33.8495 708.436 34.1852 707.856 34.3572 707.22C35.0998 703.078 35.3288 696.778 34.338 692.79" fill="#FF0000"/>
<path d="M17.0027 704.507L24.7757 700.005L17.0027 695.503V704.507Z" fill="white"/>
<path d="M166.025 685H139.401C138.489 685 137.75 685.739 137.75 686.651V713.275C137.75 714.187 138.489 714.926 139.401 714.926H166.025C166.937 714.926 167.676 714.187 167.676 713.275V686.651C167.676 685.739 166.937 685 166.025 685Z" fill="#3D5A98"/>
<path d="M158.396 715V703.411H162.285L162.867 698.895H158.396V696.013C158.396 694.705 158.76 693.813 160.634 693.813H163.026V689.767C161.868 689.646 160.704 689.589 159.539 689.595C156.095 689.595 153.723 691.694 153.723 695.565V698.895H149.834V703.411H153.723V715H158.396Z" fill="white"/>
<path d="M126.969 685H111.031C107.148 685 104 688.148 104 692.031V707.969C104 711.852 107.148 715 111.031 715H126.969C130.852 715 134 711.852 134 707.969V692.031C134 688.148 130.852 685 126.969 685Z" fill="url(#paint1_radial_125_52)"/>
<path d="M127.086 685H111.148C107.265 685 104.117 688.148 104.117 692.031V707.969C104.117 711.852 107.265 715 111.148 715H127.086C130.969 715 134.117 711.852 134.117 707.969V692.031C134.117 688.148 130.969 685 127.086 685Z" fill="url(#paint2_radial_125_52)"/>
<path d="M119.118 688.281C115.936 688.281 115.536 688.295 114.286 688.352C113.039 688.409 112.187 688.607 111.442 688.896C110.671 689.196 110.017 689.596 109.366 690.248C108.714 690.899 108.314 691.553 108.013 692.324C107.723 693.069 107.525 693.921 107.469 695.168C107.413 696.418 107.398 696.817 107.398 700C107.398 703.183 107.413 703.581 107.469 704.831C107.527 706.079 107.724 706.93 108.014 707.675C108.313 708.446 108.714 709.1 109.365 709.751C110.016 710.403 110.67 710.804 111.44 711.104C112.186 711.394 113.038 711.591 114.285 711.648C115.535 711.705 115.934 711.719 119.117 711.719C122.3 711.719 122.698 711.705 123.948 711.648C125.195 711.591 126.048 711.394 126.794 711.104C127.564 710.804 128.217 710.403 128.868 709.751C129.52 709.1 129.92 708.446 130.221 707.676C130.509 706.93 130.707 706.078 130.765 704.831C130.821 703.581 130.836 703.183 130.836 700C130.836 696.817 130.821 696.418 130.765 695.168C130.707 693.92 130.509 693.069 130.221 692.324C129.92 691.553 129.52 690.899 128.868 690.248C128.216 689.596 127.564 689.196 126.793 688.897C126.046 688.607 125.194 688.409 123.946 688.352C122.696 688.295 122.298 688.281 119.115 688.281H119.118ZM118.067 690.393C118.379 690.393 118.727 690.393 119.118 690.393C122.247 690.393 122.618 690.404 123.854 690.46C124.996 690.513 125.616 690.704 126.029 690.864C126.576 691.076 126.966 691.33 127.376 691.741C127.786 692.151 128.04 692.541 128.253 693.088C128.414 693.501 128.605 694.121 128.657 695.264C128.713 696.499 128.725 696.87 128.725 699.997C128.725 703.125 128.713 703.496 128.657 704.731C128.604 705.874 128.414 706.494 128.253 706.907C128.041 707.454 127.786 707.843 127.376 708.253C126.966 708.663 126.577 708.917 126.029 709.129C125.617 709.291 124.996 709.481 123.854 709.533C122.618 709.589 122.247 709.602 119.118 709.602C115.989 709.602 115.618 709.589 114.383 709.533C113.24 709.48 112.62 709.29 112.207 709.129C111.66 708.917 111.269 708.663 110.859 708.253C110.449 707.843 110.195 707.453 109.982 706.906C109.822 706.493 109.631 705.873 109.579 704.73C109.522 703.495 109.511 703.124 109.511 699.994C109.511 696.865 109.522 696.496 109.579 695.261C109.631 694.118 109.822 693.498 109.982 693.085C110.195 692.538 110.449 692.147 110.859 691.737C111.269 691.327 111.66 691.073 112.207 690.86C112.62 690.699 113.24 690.509 114.383 690.456C115.464 690.407 115.883 690.393 118.067 690.39V690.393ZM125.374 692.339C124.597 692.339 123.967 692.968 123.967 693.745C123.967 694.521 124.597 695.151 125.374 695.151C126.15 695.151 126.78 694.521 126.78 693.745C126.78 692.968 126.15 692.338 125.374 692.338V692.339ZM119.118 693.982C115.795 693.982 113.1 696.677 113.1 700C113.1 703.324 115.795 706.017 119.118 706.017C122.442 706.017 125.135 703.324 125.135 700C125.135 696.677 122.442 693.982 119.118 693.982H119.118ZM119.118 696.094C121.276 696.094 123.025 697.843 123.025 700C123.025 702.157 121.276 703.906 119.118 703.906C116.961 703.906 115.212 702.157 115.212 700C115.212 697.843 116.961 696.094 119.118 696.094Z" fill="white"/>
<rect x="39.25" y="685.5" width="27.0645" height="29" rx="4.5" fill="black" stroke="black"/>
<path d="M54.7848 698.318L62.6204 689.21H60.7635L53.96 697.118L48.5258 689.21H42.2581L50.4755 701.169L42.2581 710.721H44.115L51.3 702.369L57.0387 710.721H63.3064L54.7843 698.318H54.7848ZM52.2415 701.274L51.4087 700.083L44.7841 690.608H47.6363L52.9822 698.255L53.8148 699.446L60.7643 709.386H57.9124L52.2415 701.275V701.274Z" fill="white"/>
<path d="M178.543 692.773L173.855 710.188H171.249L175.936 692.773H178.543ZM179.503 695.99V693.455H191.449V695.99H186.996V708H183.956V695.99H179.503ZM193.36 708V697.091H196.385V708H193.36ZM194.88 695.685C194.43 695.685 194.044 695.536 193.722 695.237C193.405 694.934 193.246 694.572 193.246 694.151C193.246 693.734 193.405 693.376 193.722 693.078C194.044 692.775 194.43 692.624 194.88 692.624C195.329 692.624 195.713 692.775 196.03 693.078C196.352 693.376 196.513 693.734 196.513 694.151C196.513 694.572 196.352 694.934 196.03 695.237C195.713 695.536 195.329 695.685 194.88 695.685ZM198.809 708V697.091H201.742V698.994H201.856C202.055 698.317 202.388 697.806 202.857 697.46C203.326 697.11 203.866 696.935 204.477 696.935C204.628 696.935 204.791 696.944 204.967 696.963C205.142 696.982 205.296 697.008 205.428 697.041V699.726C205.286 699.683 205.09 699.645 204.839 699.612C204.588 699.579 204.358 699.562 204.15 699.562C203.705 699.562 203.307 699.66 202.957 699.854C202.611 700.043 202.336 700.308 202.133 700.649C201.934 700.99 201.835 701.383 201.835 701.828V708H198.809ZM213.988 703.355V697.091H217.014V708H214.109V706.018H213.995C213.749 706.658 213.34 707.171 212.767 707.56C212.199 707.948 211.505 708.142 210.686 708.142C209.957 708.142 209.315 707.976 208.761 707.645C208.207 707.313 207.774 706.842 207.461 706.232C207.154 705.621 206.997 704.889 206.993 704.037V697.091H210.018V703.497C210.023 704.141 210.196 704.65 210.537 705.024C210.877 705.398 211.334 705.585 211.907 705.585C212.272 705.585 212.613 705.502 212.93 705.337C213.247 705.166 213.503 704.915 213.697 704.584C213.896 704.252 213.993 703.843 213.988 703.355ZM229.604 697.091L225.79 708H222.381L218.567 697.091H221.763L224.029 704.896H224.143L226.401 697.091H229.604ZM233.971 708.206C233.275 708.206 232.654 708.085 232.11 707.844C231.565 707.598 231.134 707.235 230.817 706.757C230.505 706.274 230.348 705.673 230.348 704.953C230.348 704.347 230.46 703.838 230.682 703.426C230.905 703.014 231.208 702.683 231.591 702.432C231.975 702.181 232.41 701.991 232.898 701.864C233.391 701.736 233.907 701.646 234.446 701.594C235.081 701.527 235.592 701.466 235.98 701.409C236.369 701.348 236.65 701.258 236.826 701.139C237.001 701.021 237.088 700.846 237.088 700.614V700.571C237.088 700.121 236.946 699.773 236.662 699.527C236.383 699.281 235.985 699.158 235.469 699.158C234.925 699.158 234.491 699.278 234.169 699.52C233.847 699.757 233.634 700.055 233.53 700.415L230.732 700.188C230.874 699.525 231.153 698.952 231.57 698.469C231.987 697.981 232.524 697.607 233.182 697.347C233.845 697.081 234.612 696.949 235.483 696.949C236.089 696.949 236.669 697.02 237.223 697.162C237.782 697.304 238.277 697.524 238.708 697.822C239.143 698.121 239.487 698.504 239.738 698.973C239.989 699.437 240.114 699.993 240.114 700.642V708H237.245V706.487H237.159C236.984 706.828 236.75 707.129 236.456 707.389C236.163 707.645 235.81 707.846 235.398 707.993C234.986 708.135 234.51 708.206 233.971 708.206ZM234.837 706.118C235.282 706.118 235.675 706.03 236.016 705.855C236.357 705.675 236.624 705.434 236.819 705.131C237.013 704.828 237.11 704.484 237.11 704.101V702.943C237.015 703.005 236.885 703.062 236.719 703.114C236.558 703.161 236.376 703.206 236.172 703.249C235.969 703.286 235.765 703.322 235.561 703.355C235.358 703.384 235.173 703.41 235.007 703.433C234.652 703.485 234.342 703.568 234.077 703.682C233.812 703.795 233.606 703.949 233.459 704.143C233.312 704.333 233.239 704.57 233.239 704.854C233.239 705.266 233.388 705.58 233.686 705.798C233.989 706.011 234.373 706.118 234.837 706.118ZM245.487 701.693V708H242.461V697.091H245.345V699.016H245.473C245.714 698.381 246.119 697.879 246.687 697.51C247.255 697.136 247.944 696.949 248.754 696.949C249.511 696.949 250.172 697.115 250.735 697.446C251.299 697.777 251.737 698.251 252.049 698.866C252.362 699.477 252.518 700.206 252.518 701.054V708H249.493V701.594C249.497 700.926 249.327 700.405 248.981 700.031C248.636 699.652 248.16 699.463 247.554 699.463C247.146 699.463 246.787 699.551 246.474 699.726C246.166 699.901 245.925 700.157 245.75 700.493C245.579 700.824 245.492 701.224 245.487 701.693ZM257.928 701.693V708H254.903V697.091H257.786V699.016H257.914C258.156 698.381 258.56 697.879 259.129 697.51C259.697 697.136 260.386 696.949 261.195 696.949C261.953 696.949 262.613 697.115 263.177 697.446C263.74 697.777 264.178 698.251 264.491 698.866C264.803 699.477 264.96 700.206 264.96 701.054V708H261.934V701.594C261.939 700.926 261.768 700.405 261.423 700.031C261.077 699.652 260.601 699.463 259.995 699.463C259.588 699.463 259.228 699.551 258.915 699.726C258.608 699.901 258.366 700.157 258.191 700.493C258.021 700.824 257.933 701.224 257.928 701.693ZM270.455 708.206C269.759 708.206 269.139 708.085 268.594 707.844C268.05 707.598 267.619 707.235 267.301 706.757C266.989 706.274 266.833 705.673 266.833 704.953C266.833 704.347 266.944 703.838 267.167 703.426C267.389 703.014 267.692 702.683 268.076 702.432C268.459 702.181 268.895 701.991 269.382 701.864C269.875 701.736 270.391 701.646 270.931 701.594C271.565 701.527 272.077 701.466 272.465 701.409C272.853 701.348 273.135 701.258 273.31 701.139C273.485 701.021 273.573 700.846 273.573 700.614V700.571C273.573 700.121 273.431 699.773 273.147 699.527C272.867 699.281 272.47 699.158 271.953 699.158C271.409 699.158 270.976 699.278 270.654 699.52C270.332 699.757 270.119 700.055 270.015 700.415L267.216 700.188C267.358 699.525 267.638 698.952 268.054 698.469C268.471 697.981 269.008 697.607 269.667 697.347C270.329 697.081 271.096 696.949 271.968 696.949C272.574 696.949 273.154 697.02 273.708 697.162C274.266 697.304 274.761 697.524 275.192 697.822C275.628 698.121 275.971 698.504 276.222 698.973C276.473 699.437 276.598 699.993 276.598 700.642V708H273.729V706.487H273.644C273.469 706.828 273.234 707.129 272.941 707.389C272.647 707.645 272.294 707.846 271.882 707.993C271.471 708.135 270.995 708.206 270.455 708.206ZM271.321 706.118C271.766 706.118 272.159 706.03 272.5 705.855C272.841 705.675 273.109 705.434 273.303 705.131C273.497 704.828 273.594 704.484 273.594 704.101V702.943C273.499 703.005 273.369 703.062 273.203 703.114C273.042 703.161 272.86 703.206 272.657 703.249C272.453 703.286 272.249 703.322 272.046 703.355C271.842 703.384 271.658 703.41 271.492 703.433C271.137 703.485 270.827 703.568 270.561 703.682C270.296 703.795 270.09 703.949 269.944 704.143C269.797 704.333 269.723 704.57 269.723 704.854C269.723 705.266 269.873 705.58 270.171 705.798C270.474 706.011 270.857 706.118 271.321 706.118ZM278.946 708V697.091H281.829V699.016H281.957C282.184 698.376 282.563 697.872 283.093 697.503C283.624 697.134 284.258 696.949 284.997 696.949C285.745 696.949 286.382 697.136 286.907 697.51C287.433 697.879 287.783 698.381 287.958 699.016H288.072C288.295 698.391 288.697 697.891 289.279 697.517C289.867 697.138 290.56 696.949 291.36 696.949C292.378 696.949 293.205 697.273 293.839 697.922C294.478 698.566 294.798 699.48 294.798 700.663V708H291.779V701.26C291.779 700.654 291.618 700.199 291.297 699.896C290.975 699.593 290.572 699.442 290.089 699.442C289.54 699.442 289.111 699.617 288.804 699.967C288.496 700.313 288.342 700.77 288.342 701.338V708H285.409V701.196C285.409 700.661 285.255 700.235 284.947 699.918C284.644 699.6 284.244 699.442 283.747 699.442C283.411 699.442 283.108 699.527 282.838 699.697C282.573 699.863 282.362 700.098 282.206 700.401C282.049 700.699 281.971 701.049 281.971 701.452V708H278.946ZM300.299 708.206C299.603 708.206 298.982 708.085 298.438 707.844C297.893 707.598 297.462 707.235 297.145 706.757C296.833 706.274 296.676 705.673 296.676 704.953C296.676 704.347 296.788 703.838 297.01 703.426C297.233 703.014 297.536 702.683 297.919 702.432C298.303 702.181 298.739 701.991 299.226 701.864C299.719 701.736 300.235 701.646 300.775 701.594C301.409 701.527 301.92 701.466 302.309 701.409C302.697 701.348 302.979 701.258 303.154 701.139C303.329 701.021 303.417 700.846 303.417 700.614V700.571C303.417 700.121 303.275 699.773 302.99 699.527C302.711 699.281 302.313 699.158 301.797 699.158C301.253 699.158 300.819 699.278 300.498 699.52C300.176 699.757 299.962 700.055 299.858 700.415L297.06 700.188C297.202 699.525 297.481 698.952 297.898 698.469C298.315 697.981 298.852 697.607 299.51 697.347C300.173 697.081 300.94 696.949 301.811 696.949C302.417 696.949 302.998 697.02 303.551 697.162C304.11 697.304 304.605 697.524 305.036 697.822C305.471 698.121 305.815 698.504 306.066 698.973C306.317 699.437 306.442 699.993 306.442 700.642V708H303.573V706.487H303.488C303.312 706.828 303.078 707.129 302.784 707.389C302.491 707.645 302.138 707.846 301.726 707.993C301.314 708.135 300.838 708.206 300.299 708.206ZM301.165 706.118C301.61 706.118 302.003 706.03 302.344 705.855C302.685 705.675 302.953 705.434 303.147 705.131C303.341 704.828 303.438 704.484 303.438 704.101V702.943C303.343 703.005 303.213 703.062 303.047 703.114C302.886 703.161 302.704 703.206 302.5 703.249C302.297 703.286 302.093 703.322 301.89 703.355C301.686 703.384 301.501 703.41 301.336 703.433C300.98 703.485 300.67 703.568 300.405 703.682C300.14 703.795 299.934 703.949 299.787 704.143C299.641 704.333 299.567 704.57 299.567 704.854C299.567 705.266 299.716 705.58 300.015 705.798C300.318 706.011 300.701 706.118 301.165 706.118ZM311.815 693.455V708H308.789V693.455H311.815ZM317.349 708.206C316.653 708.206 316.033 708.085 315.489 707.844C314.944 707.598 314.513 707.235 314.196 706.757C313.884 706.274 313.727 705.673 313.727 704.953C313.727 704.347 313.839 703.838 314.061 703.426C314.284 703.014 314.587 702.683 314.97 702.432C315.354 702.181 315.789 701.991 316.277 701.864C316.769 701.736 317.286 701.646 317.825 701.594C318.46 701.527 318.971 701.466 319.359 701.409C319.748 701.348 320.029 701.258 320.205 701.139C320.38 701.021 320.467 700.846 320.467 700.614V700.571C320.467 700.121 320.325 699.773 320.041 699.527C319.762 699.281 319.364 699.158 318.848 699.158C318.304 699.158 317.87 699.278 317.548 699.52C317.226 699.757 317.013 700.055 316.909 700.415L314.111 700.188C314.253 699.525 314.532 698.952 314.949 698.469C315.366 697.981 315.903 697.607 316.561 697.347C317.224 697.081 317.991 696.949 318.862 696.949C319.468 696.949 320.048 697.02 320.602 697.162C321.161 697.304 321.656 697.524 322.087 697.822C322.522 698.121 322.866 698.504 323.116 698.973C323.367 699.437 323.493 699.993 323.493 700.642V708H320.624V706.487H320.538C320.363 706.828 320.129 707.129 319.835 707.389C319.542 707.645 319.189 707.846 318.777 707.993C318.365 708.135 317.889 708.206 317.349 708.206ZM318.216 706.118C318.661 706.118 319.054 706.03 319.395 705.855C319.736 705.675 320.003 705.434 320.197 705.131C320.392 704.828 320.489 704.484 320.489 704.101V702.943C320.394 703.005 320.264 703.062 320.098 703.114C319.937 703.161 319.755 703.206 319.551 703.249C319.348 703.286 319.144 703.322 318.94 703.355C318.737 703.384 318.552 703.41 318.386 703.433C318.031 703.485 317.721 703.568 317.456 703.682C317.191 703.795 316.985 703.949 316.838 704.143C316.691 704.333 316.618 704.57 316.618 704.854C316.618 705.266 316.767 705.58 317.065 705.798C317.368 706.011 317.752 706.118 318.216 706.118ZM325.84 708V697.091H328.866V708H325.84ZM327.36 695.685C326.91 695.685 326.524 695.536 326.202 695.237C325.885 694.934 325.727 694.572 325.727 694.151C325.727 693.734 325.885 693.376 326.202 693.078C326.524 692.775 326.91 692.624 327.36 692.624C327.81 692.624 328.193 692.775 328.511 693.078C328.833 693.376 328.994 693.734 328.994 694.151C328.994 694.572 328.833 694.934 328.511 695.237C328.193 695.536 327.81 695.685 327.36 695.685ZM333.853 708H330.558L335.579 693.455H339.542L344.556 708H341.261L337.618 696.778H337.504L333.853 708ZM333.647 702.283H341.431V704.683H333.647V702.283ZM346.25 708V697.091H349.184V698.994H349.297C349.496 698.317 349.83 697.806 350.299 697.46C350.767 697.11 351.307 696.935 351.918 696.935C352.069 696.935 352.233 696.944 352.408 696.963C352.583 696.982 352.737 697.008 352.87 697.041V699.726C352.728 699.683 352.531 699.645 352.28 699.612C352.029 699.579 351.8 699.562 351.591 699.562C351.146 699.562 350.748 699.66 350.398 699.854C350.052 700.043 349.778 700.308 349.574 700.649C349.375 700.99 349.276 701.383 349.276 701.828V708H346.25ZM361.43 703.355V697.091H364.455V708H361.55V706.018H361.437C361.191 706.658 360.781 707.171 360.208 707.56C359.64 707.948 358.946 708.142 358.127 708.142C357.398 708.142 356.756 707.976 356.202 707.645C355.648 707.313 355.215 706.842 354.903 706.232C354.595 705.621 354.439 704.889 354.434 704.037V697.091H357.46V703.497C357.464 704.141 357.637 704.65 357.978 705.024C358.319 705.398 358.776 705.585 359.349 705.585C359.713 705.585 360.054 705.502 360.371 705.337C360.689 705.166 360.944 704.915 361.138 704.584C361.337 704.252 361.434 703.843 361.43 703.355ZM369.901 701.693V708H366.875V697.091H369.759V699.016H369.887C370.128 698.381 370.533 697.879 371.101 697.51C371.669 697.136 372.358 696.949 373.168 696.949C373.926 696.949 374.586 697.115 375.15 697.446C375.713 697.777 376.151 698.251 376.463 698.866C376.776 699.477 376.932 700.206 376.932 701.054V708H373.907V701.594C373.911 700.926 373.741 700.405 373.395 700.031C373.05 699.652 372.574 699.463 371.968 699.463C371.56 699.463 371.201 699.551 370.888 699.726C370.58 699.901 370.339 700.157 370.164 700.493C369.993 700.824 369.906 701.224 369.901 701.693ZM382.428 708.206C381.732 708.206 381.111 708.085 380.567 707.844C380.022 707.598 379.591 707.235 379.274 706.757C378.962 706.274 378.805 705.673 378.805 704.953C378.805 704.347 378.917 703.838 379.139 703.426C379.362 703.014 379.665 702.683 380.048 702.432C380.432 702.181 380.867 701.991 381.355 701.864C381.848 701.736 382.364 701.646 382.903 701.594C383.538 701.527 384.049 701.466 384.438 701.409C384.826 701.348 385.107 701.258 385.283 701.139C385.458 701.021 385.545 700.846 385.545 700.614V700.571C385.545 700.121 385.403 699.773 385.119 699.527C384.84 699.281 384.442 699.158 383.926 699.158C383.382 699.158 382.948 699.278 382.626 699.52C382.304 699.757 382.091 700.055 381.987 700.415L379.189 700.188C379.331 699.525 379.61 698.952 380.027 698.469C380.444 697.981 380.981 697.607 381.639 697.347C382.302 697.081 383.069 696.949 383.94 696.949C384.546 696.949 385.126 697.02 385.68 697.162C386.239 697.304 386.734 697.524 387.165 697.822C387.6 698.121 387.944 698.504 388.195 698.973C388.446 699.437 388.571 699.993 388.571 700.642V708H385.702V706.487H385.616C385.441 706.828 385.207 707.129 384.913 707.389C384.62 707.645 384.267 707.846 383.855 707.993C383.443 708.135 382.967 708.206 382.428 708.206ZM383.294 706.118C383.739 706.118 384.132 706.03 384.473 705.855C384.814 705.675 385.081 705.434 385.276 705.131C385.47 704.828 385.567 704.484 385.567 704.101V702.943C385.472 703.005 385.342 703.062 385.176 703.114C385.015 703.161 384.833 703.206 384.629 703.249C384.426 703.286 384.222 703.322 384.018 703.355C383.815 703.384 383.63 703.41 383.464 703.433C383.109 703.485 382.799 703.568 382.534 703.682C382.269 703.795 382.063 703.949 381.916 704.143C381.769 704.333 381.696 704.57 381.696 704.854C381.696 705.266 381.845 705.58 382.143 705.798C382.446 706.011 382.83 706.118 383.294 706.118ZM390.918 708V697.091H393.944V708H390.918ZM392.438 695.685C391.988 695.685 391.603 695.536 391.281 695.237C390.963 694.934 390.805 694.572 390.805 694.151C390.805 693.734 390.963 693.376 391.281 693.078C391.603 692.775 391.988 692.624 392.438 692.624C392.888 692.624 393.272 692.775 393.589 693.078C393.911 693.376 394.072 693.734 394.072 694.151C394.072 694.572 393.911 694.934 393.589 695.237C393.272 695.536 392.888 695.685 392.438 695.685ZM396.424 708V693.455H399.5V699.868H399.691L404.926 693.455H408.612L403.214 699.967L408.676 708H404.997L401.012 702.02L399.5 703.866V708H396.424ZM416.469 703.355V697.091H419.494V708H416.589V706.018H416.476C416.23 706.658 415.82 707.171 415.247 707.56C414.679 707.948 413.985 708.142 413.166 708.142C412.437 708.142 411.795 707.976 411.241 707.645C410.688 707.313 410.254 706.842 409.942 706.232C409.634 705.621 409.478 704.889 409.473 704.037V697.091H412.499V703.497C412.503 704.141 412.676 704.65 413.017 705.024C413.358 705.398 413.815 705.585 414.388 705.585C414.752 705.585 415.093 705.502 415.411 705.337C415.728 705.166 415.983 704.915 416.178 704.584C416.376 704.252 416.473 703.843 416.469 703.355ZM421.914 708V697.091H424.848V698.994H424.961C425.16 698.317 425.494 697.806 425.963 697.46C426.431 697.11 426.971 696.935 427.582 696.935C427.734 696.935 427.897 696.944 428.072 696.963C428.247 696.982 428.401 697.008 428.534 697.041V699.726C428.392 699.683 428.195 699.645 427.944 699.612C427.693 699.579 427.464 699.562 427.255 699.562C426.81 699.562 426.413 699.66 426.062 699.854C425.717 700.043 425.442 700.308 425.238 700.649C425.039 700.99 424.94 701.383 424.94 701.828V708H421.914ZM432.896 708.206C432.2 708.206 431.58 708.085 431.036 707.844C430.491 707.598 430.06 707.235 429.743 706.757C429.43 706.274 429.274 705.673 429.274 704.953C429.274 704.347 429.385 703.838 429.608 703.426C429.83 703.014 430.134 702.683 430.517 702.432C430.901 702.181 431.336 701.991 431.824 701.864C432.316 701.736 432.832 701.646 433.372 701.594C434.007 701.527 434.518 701.466 434.906 701.409C435.295 701.348 435.576 701.258 435.751 701.139C435.927 701.021 436.014 700.846 436.014 700.614V700.571C436.014 700.121 435.872 699.773 435.588 699.527C435.309 699.281 434.911 699.158 434.395 699.158C433.85 699.158 433.417 699.278 433.095 699.52C432.773 699.757 432.56 700.055 432.456 700.415L429.658 700.188C429.8 699.525 430.079 698.952 430.496 698.469C430.912 697.981 431.45 697.607 432.108 697.347C432.771 697.081 433.538 696.949 434.409 696.949C435.015 696.949 435.595 697.02 436.149 697.162C436.708 697.304 437.203 697.524 437.634 697.822C438.069 698.121 438.412 698.504 438.663 698.973C438.914 699.437 439.04 699.993 439.04 700.642V708H436.17V706.487H436.085C435.91 706.828 435.676 707.129 435.382 707.389C435.089 707.645 434.736 707.846 434.324 707.993C433.912 708.135 433.436 708.206 432.896 708.206ZM433.763 706.118C434.208 706.118 434.601 706.03 434.942 705.855C435.283 705.675 435.55 705.434 435.744 705.131C435.938 704.828 436.036 704.484 436.036 704.101V702.943C435.941 703.005 435.811 703.062 435.645 703.114C435.484 703.161 435.302 703.206 435.098 703.249C434.894 703.286 434.691 703.322 434.487 703.355C434.284 703.384 434.099 703.41 433.933 703.433C433.578 703.485 433.268 703.568 433.003 703.682C432.738 703.795 432.532 703.949 432.385 704.143C432.238 704.333 432.165 704.57 432.165 704.854C432.165 705.266 432.314 705.58 432.612 705.798C432.915 706.011 433.299 706.118 433.763 706.118ZM444.413 693.455V708H441.387V693.455H444.413Z" fill="black"/>
<defs>
<linearGradient id="paint0_linear_125_52" x1="1570.25" y1="685" x2="1570.25" y2="3685" gradientUnits="userSpaceOnUse">
<stop stop-color="#2AABEE"/>
<stop offset="1" stop-color="#229ED9"/>
</linearGradient>
<radialGradient id="paint1_radial_125_52" cx="0" cy="0" r="1" gradientUnits="userSpaceOnUse" gradientTransform="translate(111.969 717.311) rotate(-90) scale(29.7322 27.6533)">
<stop stop-color="#FFDD55"/>
<stop offset="0.1" stop-color="#FFDD55"/>
<stop offset="0.5" stop-color="#FF543E"/>
<stop offset="1" stop-color="#C837AB"/>
</radialGradient>
<radialGradient id="paint2_radial_125_52" cx="0" cy="0" r="1" gradientUnits="userSpaceOnUse" gradientTransform="translate(99.0921 687.161) rotate(78.681) scale(13.2905 54.7837)">
<stop stop-color="#3771C8"/>
<stop offset="0.128" stop-color="#3771C8"/>
<stop offset="1" stop-color="#6600FF" stop-opacity="0"/>
</radialGradient>
</defs>
</svg>
