<svg width="720" height="720" viewBox="0 0 720 720" fill="none" xmlns="http://www.w3.org/2000/svg">
<rect y="680" width="720" height="40" fill="white"/>
<path d="M85.25 685C81.2727 685 77.4547 686.581 74.6445 689.393C71.8315 692.207 70.2508 696.022 70.25 700C70.25 703.977 71.832 707.795 74.6445 710.607C77.4547 713.419 81.2727 715 85.25 715C89.2273 715 93.0453 713.419 95.8555 710.607C98.668 707.795 100.25 703.977 100.25 700C100.25 696.023 98.668 692.205 95.8555 689.393C93.0453 686.581 89.2273 685 85.25 685Z" fill="url(#paint0_linear_140_2)"/>
<path d="M77.04 699.842C81.4135 697.937 84.3291 696.681 85.7869 696.074C89.9541 694.341 90.819 694.04 91.3838 694.03C91.508 694.028 91.7846 694.059 91.965 694.204C92.115 694.328 92.1572 694.494 92.1783 694.611C92.1971 694.727 92.2229 694.994 92.2018 695.201C91.9768 697.573 90.9994 703.329 90.5025 705.985C90.294 707.11 89.8791 707.486 89.4783 707.523C88.6065 707.603 87.9455 706.948 87.1018 706.395C85.7822 705.529 85.0369 704.991 83.7549 704.146C82.2736 703.17 83.2346 702.634 84.0783 701.757C84.2986 701.528 88.1377 698.037 88.2104 697.72C88.2197 697.68 88.2291 697.533 88.14 697.455C88.0533 697.377 87.9244 697.404 87.8307 697.425C87.6971 697.455 85.59 698.849 81.5025 701.607C80.9049 702.018 80.3635 702.218 79.876 702.208C79.3416 702.196 78.3104 701.905 77.544 701.656C76.6065 701.35 75.8588 701.189 75.9244 700.67C75.9572 700.4 76.3299 700.124 77.04 699.842Z" fill="white"/>
<path d="M34.3382 692.79C34.1661 692.154 33.8303 691.574 33.3645 691.108C32.8986 690.643 32.3188 690.307 31.6829 690.135C29.3546 689.5 19.9849 689.5 19.9849 689.5C19.9849 689.5 10.6148 689.519 8.28683 690.154C7.65091 690.326 7.07117 690.662 6.60533 691.128C6.13949 691.594 5.80382 692.173 5.63173 692.809C4.9275 696.946 4.65429 703.249 5.651 707.22C5.82309 707.856 6.15876 708.436 6.6246 708.902C7.09043 709.367 7.67018 709.703 8.3061 709.875C10.6342 710.51 20.0041 710.51 20.0041 710.51C20.0041 710.51 29.374 710.51 31.7021 709.875C32.3381 709.703 32.9178 709.367 33.3836 708.902C33.8495 708.436 34.1852 707.856 34.3572 707.22C35.0998 703.078 35.3288 696.778 34.338 692.79" fill="#FF0000"/>
<path d="M17.0024 704.507L24.7754 700.005L17.0024 695.503V704.507Z" fill="white"/>
<path d="M166.025 685H139.401C138.489 685 137.75 685.739 137.75 686.651V713.275C137.75 714.187 138.489 714.926 139.401 714.926H166.025C166.937 714.926 167.676 714.187 167.676 713.275V686.651C167.676 685.739 166.937 685 166.025 685Z" fill="#3D5A98"/>
<path d="M158.396 715V703.411H162.285L162.866 698.895H158.396V696.013C158.396 694.705 158.76 693.813 160.634 693.813H163.026V689.767C161.867 689.646 160.703 689.589 159.539 689.595C156.095 689.595 153.723 691.694 153.723 695.565V698.895H149.834V703.411H153.723V715H158.396Z" fill="white"/>
<path d="M126.969 685H111.031C107.148 685 104 688.148 104 692.031V707.969C104 711.852 107.148 715 111.031 715H126.969C130.852 715 134 711.852 134 707.969V692.031C134 688.148 130.852 685 126.969 685Z" fill="url(#paint1_radial_140_2)"/>
<path d="M127.086 685H111.148C107.265 685 104.117 688.148 104.117 692.031V707.969C104.117 711.852 107.265 715 111.148 715H127.086C130.969 715 134.117 711.852 134.117 707.969V692.031C134.117 688.148 130.969 685 127.086 685Z" fill="url(#paint2_radial_140_2)"/>
<path d="M119.118 688.281C115.936 688.281 115.536 688.295 114.286 688.352C113.039 688.409 112.187 688.607 111.442 688.896C110.671 689.196 110.017 689.596 109.366 690.248C108.714 690.899 108.314 691.553 108.013 692.324C107.723 693.069 107.525 693.921 107.469 695.168C107.413 696.418 107.398 696.817 107.398 700C107.398 703.183 107.413 703.581 107.469 704.831C107.527 706.079 107.724 706.93 108.014 707.675C108.313 708.446 108.714 709.1 109.365 709.751C110.016 710.403 110.67 710.804 111.44 711.104C112.186 711.394 113.038 711.591 114.285 711.648C115.535 711.705 115.934 711.719 119.117 711.719C122.3 711.719 122.698 711.705 123.948 711.648C125.195 711.591 126.048 711.394 126.794 711.104C127.564 710.804 128.217 710.403 128.868 709.751C129.52 709.1 129.92 708.446 130.221 707.676C130.509 706.93 130.707 706.078 130.765 704.831C130.821 703.581 130.836 703.183 130.836 700C130.836 696.817 130.821 696.418 130.765 695.168C130.707 693.92 130.509 693.069 130.221 692.324C129.92 691.553 129.52 690.899 128.868 690.248C128.216 689.596 127.564 689.196 126.793 688.897C126.046 688.607 125.194 688.409 123.946 688.352C122.696 688.295 122.298 688.281 119.115 688.281H119.118ZM118.067 690.393C118.379 690.393 118.727 690.393 119.118 690.393C122.247 690.393 122.618 690.404 123.854 690.46C124.996 690.513 125.616 690.704 126.029 690.864C126.576 691.076 126.966 691.33 127.376 691.741C127.786 692.151 128.04 692.541 128.253 693.088C128.414 693.501 128.605 694.121 128.657 695.264C128.713 696.499 128.725 696.87 128.725 699.997C128.725 703.125 128.713 703.496 128.657 704.731C128.604 705.874 128.414 706.494 128.253 706.907C128.041 707.454 127.786 707.843 127.376 708.253C126.966 708.663 126.577 708.917 126.029 709.129C125.617 709.291 124.996 709.481 123.854 709.533C122.618 709.589 122.247 709.602 119.118 709.602C115.989 709.602 115.618 709.589 114.383 709.533C113.24 709.48 112.62 709.29 112.207 709.129C111.66 708.917 111.269 708.663 110.859 708.253C110.449 707.843 110.195 707.453 109.982 706.906C109.822 706.493 109.631 705.873 109.579 704.73C109.522 703.495 109.511 703.124 109.511 699.994C109.511 696.865 109.522 696.496 109.579 695.261C109.631 694.118 109.822 693.498 109.982 693.085C110.195 692.538 110.449 692.147 110.859 691.737C111.269 691.327 111.66 691.073 112.207 690.86C112.62 690.699 113.24 690.509 114.383 690.456C115.464 690.407 115.883 690.393 118.067 690.39V690.393ZM125.374 692.339C124.597 692.339 123.967 692.968 123.967 693.745C123.967 694.521 124.597 695.151 125.374 695.151C126.15 695.151 126.78 694.521 126.78 693.745C126.78 692.968 126.15 692.338 125.374 692.338V692.339ZM119.118 693.982C115.795 693.982 113.1 696.677 113.1 700C113.1 703.324 115.795 706.017 119.118 706.017C122.442 706.017 125.135 703.324 125.135 700C125.135 696.677 122.442 693.982 119.118 693.982H119.118ZM119.118 696.094C121.276 696.094 123.025 697.843 123.025 700C123.025 702.157 121.276 703.906 119.118 703.906C116.961 703.906 115.212 702.157 115.212 700C115.212 697.843 116.961 696.094 119.118 696.094Z" fill="white"/>
<rect x="39.25" y="685.5" width="27.0645" height="29" rx="4.5" fill="black" stroke="black"/>
<path d="M54.7845 698.318L62.6202 689.21H60.7632L53.9597 697.118L48.5255 689.21H42.2578L50.4753 701.169L42.2578 710.721H44.1148L51.2998 702.369L57.0385 710.721H63.3062L54.784 698.318H54.7845ZM52.2412 701.274L51.4085 700.083L44.7838 690.608H47.636L52.982 698.255L53.8145 699.446L60.7641 709.386H57.9122L52.2412 701.275V701.274Z" fill="white"/>
<path d="M180.051 690.727L174.426 711.625H171.298L176.923 690.727H180.051ZM181.204 694.588V691.545H195.539V694.588H190.195V709H186.548V694.588H181.204ZM197.832 709V695.909H201.462V709H197.832ZM199.656 694.222C199.116 694.222 198.653 694.043 198.266 693.685C197.886 693.321 197.695 692.886 197.695 692.381C197.695 691.881 197.886 691.452 198.266 691.094C198.653 690.73 199.116 690.548 199.656 690.548C200.195 690.548 200.656 690.73 201.036 691.094C201.423 691.452 201.616 691.881 201.616 692.381C201.616 692.886 201.423 693.321 201.036 693.685C200.656 694.043 200.195 694.222 199.656 694.222ZM204.371 709V695.909H207.891V698.193H208.027C208.266 697.381 208.666 696.767 209.229 696.352C209.791 695.932 210.439 695.722 211.172 695.722C211.354 695.722 211.55 695.733 211.76 695.756C211.97 695.778 212.155 695.81 212.314 695.849V699.071C212.143 699.02 211.908 698.974 211.607 698.935C211.305 698.895 211.03 698.875 210.78 698.875C210.246 698.875 209.768 698.991 209.348 699.224C208.933 699.452 208.604 699.77 208.359 700.179C208.121 700.588 208.001 701.06 208.001 701.594V709H204.371ZM222.586 703.426V695.909H226.217V709H222.731V706.622H222.594C222.299 707.389 221.808 708.006 221.12 708.472C220.438 708.937 219.606 709.17 218.623 709.17C217.748 709.17 216.978 708.972 216.313 708.574C215.648 708.176 215.129 707.611 214.754 706.878C214.384 706.145 214.197 705.267 214.191 704.244V695.909H217.822V703.597C217.827 704.369 218.035 704.98 218.444 705.429C218.853 705.878 219.401 706.102 220.089 706.102C220.526 706.102 220.935 706.003 221.316 705.804C221.697 705.599 222.004 705.298 222.237 704.901C222.475 704.503 222.592 704.011 222.586 703.426ZM241.325 695.909L236.749 709H232.658L228.081 695.909H231.916L234.635 705.276H234.771L237.482 695.909H241.325ZM246.565 709.247C245.729 709.247 244.985 709.102 244.332 708.812C243.678 708.517 243.161 708.082 242.781 707.509C242.406 706.929 242.218 706.207 242.218 705.344C242.218 704.616 242.352 704.006 242.619 703.511C242.886 703.017 243.249 702.619 243.71 702.318C244.17 702.017 244.692 701.79 245.278 701.636C245.869 701.483 246.488 701.375 247.136 701.312C247.897 701.233 248.511 701.159 248.977 701.091C249.442 701.017 249.781 700.909 249.991 700.767C250.201 700.625 250.306 700.415 250.306 700.136V700.085C250.306 699.545 250.136 699.128 249.795 698.832C249.46 698.537 248.982 698.389 248.363 698.389C247.71 698.389 247.19 698.534 246.803 698.824C246.417 699.108 246.161 699.466 246.036 699.898L242.678 699.625C242.849 698.83 243.184 698.142 243.684 697.562C244.184 696.977 244.829 696.528 245.619 696.216C246.414 695.898 247.335 695.739 248.38 695.739C249.107 695.739 249.803 695.824 250.468 695.994C251.138 696.165 251.732 696.429 252.249 696.787C252.772 697.145 253.184 697.605 253.485 698.168C253.786 698.724 253.937 699.392 253.937 700.17V709H250.494V707.185H250.391C250.181 707.594 249.9 707.955 249.548 708.267C249.195 708.574 248.772 708.815 248.278 708.991C247.783 709.162 247.212 709.247 246.565 709.247ZM247.604 706.741C248.138 706.741 248.61 706.636 249.019 706.426C249.428 706.21 249.749 705.92 249.982 705.557C250.215 705.193 250.332 704.781 250.332 704.321V702.932C250.218 703.006 250.062 703.074 249.863 703.136C249.67 703.193 249.451 703.247 249.207 703.298C248.962 703.344 248.718 703.386 248.474 703.426C248.229 703.46 248.008 703.491 247.809 703.52C247.383 703.582 247.011 703.682 246.692 703.818C246.374 703.955 246.127 704.139 245.951 704.372C245.775 704.599 245.687 704.884 245.687 705.224C245.687 705.719 245.866 706.097 246.224 706.358C246.587 706.614 247.048 706.741 247.604 706.741ZM260.384 701.432V709H256.754V695.909H260.214V698.219H260.367C260.657 697.457 261.143 696.855 261.825 696.412C262.506 695.963 263.333 695.739 264.305 695.739C265.214 695.739 266.006 695.938 266.683 696.335C267.359 696.733 267.884 697.301 268.259 698.04C268.634 698.773 268.822 699.648 268.822 700.665V709H265.191V701.312C265.197 700.511 264.992 699.886 264.577 699.438C264.163 698.983 263.592 698.756 262.864 698.756C262.376 698.756 261.944 698.861 261.569 699.071C261.2 699.281 260.91 699.588 260.7 699.991C260.495 700.389 260.39 700.869 260.384 701.432ZM275.314 701.432V709H271.683V695.909H275.143V698.219H275.297C275.587 697.457 276.072 696.855 276.754 696.412C277.436 695.963 278.263 695.739 279.234 695.739C280.143 695.739 280.936 695.938 281.612 696.335C282.288 696.733 282.814 697.301 283.189 698.04C283.564 698.773 283.751 699.648 283.751 700.665V709H280.121V701.312C280.126 700.511 279.922 699.886 279.507 699.438C279.092 698.983 278.521 698.756 277.794 698.756C277.305 698.756 276.874 698.861 276.499 699.071C276.129 699.281 275.839 699.588 275.629 699.991C275.425 700.389 275.32 700.869 275.314 701.432ZM290.346 709.247C289.511 709.247 288.766 709.102 288.113 708.812C287.46 708.517 286.942 708.082 286.562 707.509C286.187 706.929 285.999 706.207 285.999 705.344C285.999 704.616 286.133 704.006 286.4 703.511C286.667 703.017 287.031 702.619 287.491 702.318C287.951 702.017 288.474 701.79 289.059 701.636C289.65 701.483 290.269 701.375 290.917 701.312C291.678 701.233 292.292 701.159 292.758 701.091C293.224 701.017 293.562 700.909 293.772 700.767C293.982 700.625 294.087 700.415 294.087 700.136V700.085C294.087 699.545 293.917 699.128 293.576 698.832C293.241 698.537 292.763 698.389 292.144 698.389C291.491 698.389 290.971 698.534 290.585 698.824C290.198 699.108 289.942 699.466 289.817 699.898L286.46 699.625C286.63 698.83 286.965 698.142 287.465 697.562C287.965 696.977 288.61 696.528 289.4 696.216C290.195 695.898 291.116 695.739 292.161 695.739C292.888 695.739 293.585 695.824 294.249 695.994C294.92 696.165 295.513 696.429 296.031 696.787C296.553 697.145 296.965 697.605 297.266 698.168C297.567 698.724 297.718 699.392 297.718 700.17V709H294.275V707.185H294.173C293.962 707.594 293.681 707.955 293.329 708.267C292.977 708.574 292.553 708.815 292.059 708.991C291.565 709.162 290.994 709.247 290.346 709.247ZM291.386 706.741C291.92 706.741 292.391 706.636 292.8 706.426C293.21 706.21 293.531 705.92 293.763 705.557C293.996 705.193 294.113 704.781 294.113 704.321V702.932C293.999 703.006 293.843 703.074 293.644 703.136C293.451 703.193 293.232 703.247 292.988 703.298C292.744 703.344 292.499 703.386 292.255 703.426C292.011 703.46 291.789 703.491 291.59 703.52C291.164 703.582 290.792 703.682 290.474 703.818C290.156 703.955 289.908 704.139 289.732 704.372C289.556 704.599 289.468 704.884 289.468 705.224C289.468 705.719 289.647 706.097 290.005 706.358C290.369 706.614 290.829 706.741 291.386 706.741ZM300.535 709V695.909H303.995V698.219H304.148C304.421 697.452 304.876 696.847 305.512 696.403C306.148 695.96 306.91 695.739 307.796 695.739C308.694 695.739 309.458 695.963 310.089 696.412C310.719 696.855 311.14 697.457 311.35 698.219H311.487C311.754 697.469 312.237 696.869 312.935 696.42C313.64 695.966 314.472 695.739 315.433 695.739C316.654 695.739 317.646 696.128 318.407 696.906C319.174 697.679 319.558 698.776 319.558 700.196V709H315.935V700.912C315.935 700.185 315.742 699.639 315.356 699.276C314.969 698.912 314.487 698.73 313.907 698.73C313.248 698.73 312.734 698.94 312.364 699.361C311.995 699.776 311.81 700.324 311.81 701.006V709H308.29V700.835C308.29 700.193 308.106 699.682 307.737 699.301C307.373 698.92 306.893 698.73 306.296 698.73C305.893 698.73 305.529 698.832 305.205 699.037C304.887 699.236 304.634 699.517 304.447 699.881C304.259 700.239 304.165 700.659 304.165 701.142V709H300.535ZM326.158 709.247C325.323 709.247 324.579 709.102 323.925 708.812C323.272 708.517 322.755 708.082 322.374 707.509C321.999 706.929 321.812 706.207 321.812 705.344C321.812 704.616 321.945 704.006 322.212 703.511C322.479 703.017 322.843 702.619 323.303 702.318C323.763 702.017 324.286 701.79 324.871 701.636C325.462 701.483 326.082 701.375 326.729 701.312C327.491 701.233 328.104 701.159 328.57 701.091C329.036 701.017 329.374 700.909 329.585 700.767C329.795 700.625 329.9 700.415 329.9 700.136V700.085C329.9 699.545 329.729 699.128 329.388 698.832C329.053 698.537 328.576 698.389 327.957 698.389C327.303 698.389 326.783 698.534 326.397 698.824C326.011 699.108 325.755 699.466 325.63 699.898L322.272 699.625C322.442 698.83 322.778 698.142 323.278 697.562C323.778 696.977 324.423 696.528 325.212 696.216C326.008 695.898 326.928 695.739 327.974 695.739C328.701 695.739 329.397 695.824 330.062 695.994C330.732 696.165 331.326 696.429 331.843 696.787C332.366 697.145 332.778 697.605 333.079 698.168C333.38 698.724 333.531 699.392 333.531 700.17V709H330.087V707.185H329.985C329.775 707.594 329.494 707.955 329.141 708.267C328.789 708.574 328.366 708.815 327.871 708.991C327.377 709.162 326.806 709.247 326.158 709.247ZM327.198 706.741C327.732 706.741 328.204 706.636 328.613 706.426C329.022 706.21 329.343 705.92 329.576 705.557C329.809 705.193 329.925 704.781 329.925 704.321V702.932C329.812 703.006 329.656 703.074 329.457 703.136C329.263 703.193 329.045 703.247 328.8 703.298C328.556 703.344 328.312 703.386 328.067 703.426C327.823 703.46 327.602 703.491 327.403 703.52C326.977 703.582 326.604 703.682 326.286 703.818C325.968 703.955 325.721 704.139 325.545 704.372C325.369 704.599 325.281 704.884 325.281 705.224C325.281 705.719 325.46 706.097 325.817 706.358C326.181 706.614 326.641 706.741 327.198 706.741ZM339.978 691.545V709H336.347V691.545H339.978ZM346.619 709.247C345.784 709.247 345.04 709.102 344.386 708.812C343.733 708.517 343.216 708.082 342.835 707.509C342.46 706.929 342.273 706.207 342.273 705.344C342.273 704.616 342.406 704.006 342.673 703.511C342.94 703.017 343.304 702.619 343.764 702.318C344.224 702.017 344.747 701.79 345.332 701.636C345.923 701.483 346.543 701.375 347.19 701.312C347.952 701.233 348.565 701.159 349.031 701.091C349.497 701.017 349.835 700.909 350.045 700.767C350.256 700.625 350.361 700.415 350.361 700.136V700.085C350.361 699.545 350.19 699.128 349.849 698.832C349.514 698.537 349.037 698.389 348.418 698.389C347.764 698.389 347.244 698.534 346.858 698.824C346.472 699.108 346.216 699.466 346.091 699.898L342.733 699.625C342.903 698.83 343.239 698.142 343.739 697.562C344.239 696.977 344.884 696.528 345.673 696.216C346.469 695.898 347.389 695.739 348.435 695.739C349.162 695.739 349.858 695.824 350.523 695.994C351.193 696.165 351.787 696.429 352.304 696.787C352.827 697.145 353.239 697.605 353.54 698.168C353.841 698.724 353.991 699.392 353.991 700.17V709H350.548V707.185H350.446C350.236 707.594 349.955 707.955 349.602 708.267C349.25 708.574 348.827 708.815 348.332 708.991C347.838 709.162 347.267 709.247 346.619 709.247ZM347.659 706.741C348.193 706.741 348.665 706.636 349.074 706.426C349.483 706.21 349.804 705.92 350.037 705.557C350.27 705.193 350.386 704.781 350.386 704.321V702.932C350.273 703.006 350.116 703.074 349.918 703.136C349.724 703.193 349.506 703.247 349.261 703.298C349.017 703.344 348.773 703.386 348.528 703.426C348.284 703.46 348.062 703.491 347.864 703.52C347.438 703.582 347.065 703.682 346.747 703.818C346.429 703.955 346.182 704.139 346.006 704.372C345.83 704.599 345.741 704.884 345.741 705.224C345.741 705.719 345.92 706.097 346.278 706.358C346.642 706.614 347.102 706.741 347.659 706.741ZM356.808 709V695.909H360.439V709H356.808ZM358.632 694.222C358.092 694.222 357.629 694.043 357.243 693.685C356.862 693.321 356.672 692.886 356.672 692.381C356.672 691.881 356.862 691.452 357.243 691.094C357.629 690.73 358.092 690.548 358.632 690.548C359.172 690.548 359.632 690.73 360.013 691.094C360.399 691.452 360.592 691.881 360.592 692.381C360.592 692.886 360.399 693.321 360.013 693.685C359.632 694.043 359.172 694.222 358.632 694.222ZM366.424 709H362.469L368.495 691.545H373.251L379.268 709H375.313L370.941 695.534H370.805L366.424 709ZM366.177 702.139H375.518V705.02H366.177V702.139ZM381.3 709V695.909H384.82V698.193H384.957C385.195 697.381 385.596 696.767 386.158 696.352C386.721 695.932 387.369 695.722 388.102 695.722C388.283 695.722 388.479 695.733 388.69 695.756C388.9 695.778 389.085 695.81 389.244 695.849V699.071C389.073 699.02 388.837 698.974 388.536 698.935C388.235 698.895 387.96 698.875 387.71 698.875C387.175 698.875 386.698 698.991 386.278 699.224C385.863 699.452 385.533 699.77 385.289 700.179C385.05 700.588 384.931 701.06 384.931 701.594V709H381.3ZM399.516 703.426V695.909H403.146V709H399.661V706.622H399.524C399.229 707.389 398.737 708.006 398.05 708.472C397.368 708.937 396.536 709.17 395.553 709.17C394.678 709.17 393.908 708.972 393.243 708.574C392.578 708.176 392.058 707.611 391.683 706.878C391.314 706.145 391.126 705.267 391.121 704.244V695.909H394.751V703.597C394.757 704.369 394.964 704.98 395.374 705.429C395.783 705.878 396.331 706.102 397.018 706.102C397.456 706.102 397.865 706.003 398.246 705.804C398.626 705.599 398.933 705.298 399.166 704.901C399.405 704.503 399.521 704.011 399.516 703.426ZM409.681 701.432V709H406.05V695.909H409.511V698.219H409.664C409.954 697.457 410.44 696.855 411.121 696.412C411.803 695.963 412.63 695.739 413.602 695.739C414.511 695.739 415.303 695.938 415.979 696.335C416.656 696.733 417.181 697.301 417.556 698.04C417.931 698.773 418.119 699.648 418.119 700.665V709H414.488V701.312C414.494 700.511 414.289 699.886 413.874 699.438C413.46 698.983 412.888 698.756 412.161 698.756C411.673 698.756 411.241 698.861 410.866 699.071C410.496 699.281 410.207 699.588 409.996 699.991C409.792 700.389 409.687 700.869 409.681 701.432ZM424.713 709.247C423.878 709.247 423.134 709.102 422.48 708.812C421.827 708.517 421.31 708.082 420.929 707.509C420.554 706.929 420.366 706.207 420.366 705.344C420.366 704.616 420.5 704.006 420.767 703.511C421.034 703.017 421.398 702.619 421.858 702.318C422.318 702.017 422.841 701.79 423.426 701.636C424.017 701.483 424.636 701.375 425.284 701.312C426.045 701.233 426.659 701.159 427.125 701.091C427.591 701.017 427.929 700.909 428.139 700.767C428.349 700.625 428.455 700.415 428.455 700.136V700.085C428.455 699.545 428.284 699.128 427.943 698.832C427.608 698.537 427.131 698.389 426.511 698.389C425.858 698.389 425.338 698.534 424.952 698.824C424.565 699.108 424.31 699.466 424.185 699.898L420.827 699.625C420.997 698.83 421.332 698.142 421.832 697.562C422.332 696.977 422.977 696.528 423.767 696.216C424.563 695.898 425.483 695.739 426.528 695.739C427.256 695.739 427.952 695.824 428.616 695.994C429.287 696.165 429.881 696.429 430.398 696.787C430.92 697.145 431.332 697.605 431.634 698.168C431.935 698.724 432.085 699.392 432.085 700.17V709H428.642V707.185H428.54C428.33 707.594 428.048 707.955 427.696 708.267C427.344 708.574 426.92 708.815 426.426 708.991C425.932 709.162 425.361 709.247 424.713 709.247ZM425.753 706.741C426.287 706.741 426.759 706.636 427.168 706.426C427.577 706.21 427.898 705.92 428.131 705.557C428.364 705.193 428.48 704.781 428.48 704.321V702.932C428.366 703.006 428.21 703.074 428.011 703.136C427.818 703.193 427.599 703.247 427.355 703.298C427.111 703.344 426.866 703.386 426.622 703.426C426.378 703.46 426.156 703.491 425.957 703.52C425.531 703.582 425.159 703.682 424.841 703.818C424.523 703.955 424.276 704.139 424.099 704.372C423.923 704.599 423.835 704.884 423.835 705.224C423.835 705.719 424.014 706.097 424.372 706.358C424.736 706.614 425.196 706.741 425.753 706.741ZM434.902 709V695.909H438.533V709H434.902ZM436.726 694.222C436.186 694.222 435.723 694.043 435.337 693.685C434.956 693.321 434.766 692.886 434.766 692.381C434.766 691.881 434.956 691.452 435.337 691.094C435.723 690.73 436.186 690.548 436.726 690.548C437.266 690.548 437.726 690.73 438.107 691.094C438.493 691.452 438.686 691.881 438.686 692.381C438.686 692.886 438.493 693.321 438.107 693.685C437.726 694.043 437.266 694.222 436.726 694.222ZM441.509 709V691.545H445.2V699.241H445.43L451.711 691.545H456.134L449.657 699.361L456.211 709H451.796L447.015 701.824L445.2 704.04V709H441.509ZM465.562 703.426V695.909H469.193V709H465.707V706.622H465.571C465.276 707.389 464.784 708.006 464.097 708.472C463.415 708.937 462.582 709.17 461.599 709.17C460.724 709.17 459.955 708.972 459.29 708.574C458.625 708.176 458.105 707.611 457.73 706.878C457.361 706.145 457.173 705.267 457.168 704.244V695.909H460.798V703.597C460.804 704.369 461.011 704.98 461.42 705.429C461.83 705.878 462.378 706.102 463.065 706.102C463.503 706.102 463.912 706.003 464.293 705.804C464.673 705.599 464.98 705.298 465.213 704.901C465.452 704.503 465.568 704.011 465.562 703.426ZM472.097 709V695.909H475.617V698.193H475.754C475.992 697.381 476.393 696.767 476.955 696.352C477.518 695.932 478.165 695.722 478.898 695.722C479.08 695.722 479.276 695.733 479.487 695.756C479.697 695.778 479.881 695.81 480.04 695.849V699.071C479.87 699.02 479.634 698.974 479.333 698.935C479.032 698.895 478.756 698.875 478.506 698.875C477.972 698.875 477.495 698.991 477.075 699.224C476.66 699.452 476.33 699.77 476.086 700.179C475.847 700.588 475.728 701.06 475.728 701.594V709H472.097ZM485.276 709.247C484.44 709.247 483.696 709.102 483.043 708.812C482.389 708.517 481.872 708.082 481.491 707.509C481.116 706.929 480.929 706.207 480.929 705.344C480.929 704.616 481.063 704.006 481.33 703.511C481.597 703.017 481.96 702.619 482.42 702.318C482.881 702.017 483.403 701.79 483.989 701.636C484.58 701.483 485.199 701.375 485.847 701.312C486.608 701.233 487.222 701.159 487.688 701.091C488.153 701.017 488.491 700.909 488.702 700.767C488.912 700.625 489.017 700.415 489.017 700.136V700.085C489.017 699.545 488.847 699.128 488.506 698.832C488.17 698.537 487.693 698.389 487.074 698.389C486.42 698.389 485.901 698.534 485.514 698.824C485.128 699.108 484.872 699.466 484.747 699.898L481.389 699.625C481.56 698.83 481.895 698.142 482.395 697.562C482.895 696.977 483.54 696.528 484.33 696.216C485.125 695.898 486.045 695.739 487.091 695.739C487.818 695.739 488.514 695.824 489.179 695.994C489.849 696.165 490.443 696.429 490.96 696.787C491.483 697.145 491.895 697.605 492.196 698.168C492.497 698.724 492.648 699.392 492.648 700.17V709H489.205V707.185H489.102C488.892 707.594 488.611 707.955 488.259 708.267C487.906 708.574 487.483 708.815 486.989 708.991C486.494 709.162 485.923 709.247 485.276 709.247ZM486.315 706.741C486.849 706.741 487.321 706.636 487.73 706.426C488.139 706.21 488.46 705.92 488.693 705.557C488.926 705.193 489.043 704.781 489.043 704.321V702.932C488.929 703.006 488.773 703.074 488.574 703.136C488.381 703.193 488.162 703.247 487.918 703.298C487.673 703.344 487.429 703.386 487.185 703.426C486.94 703.46 486.719 703.491 486.52 703.52C486.094 703.582 485.722 703.682 485.403 703.818C485.085 703.955 484.838 704.139 484.662 704.372C484.486 704.599 484.398 704.884 484.398 705.224C484.398 705.719 484.577 706.097 484.935 706.358C485.298 706.614 485.759 706.741 486.315 706.741ZM499.095 691.545V709H495.464V691.545H499.095Z" fill="black"/>
<defs>
<linearGradient id="paint0_linear_140_2" x1="1570.25" y1="685" x2="1570.25" y2="3685" gradientUnits="userSpaceOnUse">
<stop stop-color="#2AABEE"/>
<stop offset="1" stop-color="#229ED9"/>
</linearGradient>
<radialGradient id="paint1_radial_140_2" cx="0" cy="0" r="1" gradientUnits="userSpaceOnUse" gradientTransform="translate(111.969 717.311) rotate(-90) scale(29.7322 27.6533)">
<stop stop-color="#FFDD55"/>
<stop offset="0.1" stop-color="#FFDD55"/>
<stop offset="0.5" stop-color="#FF543E"/>
<stop offset="1" stop-color="#C837AB"/>
</radialGradient>
<radialGradient id="paint2_radial_140_2" cx="0" cy="0" r="1" gradientUnits="userSpaceOnUse" gradientTransform="translate(99.0921 687.161) rotate(78.681) scale(13.2905 54.7837)">
<stop stop-color="#3771C8"/>
<stop offset="0.128" stop-color="#3771C8"/>
<stop offset="1" stop-color="#6600FF" stop-opacity="0"/>
</radialGradient>
</defs>
</svg>
